<svg id="Layer_5" enable-background="new 0 0 64 64" height="512" viewBox="0 0 64 64" width="512" fill="#D00000" xmlns="http://www.w3.org/2000/svg"><path d="m23 20v-2c-4.411 0-8 3.589-8 8h2c0-3.309 2.691-6 6-6z"/><path d="m60 1h-24c-1.654 0-3 1.346-3 3v2.49c-1.605-.577-3.381-.439-4.877.388-1.061-1.761-2.985-2.878-5.173-2.878-2.105 0-4.015 1.117-5.074 2.879-1.799-.998-4.01-1.009-5.832.043l-.088.051c-1.822 1.052-2.917 2.974-2.954 5.029-2.055.037-3.977 1.132-5.029 2.954l-.051.088c-1.052 1.822-1.038 4.034-.043 5.832-1.762 1.06-2.879 2.969-2.879 5.073v.101c0 2.105 1.117 4.015 2.879 5.074-.996 1.798-1.009 4.009.043 5.832l.051.088c1.053 1.822 2.975 2.917 5.029 2.954.011.612.127 1.208.316 1.777l-8.449 13.788 9.403-2.351 2.345 9.378 8.841-14.796c.508.135 1.041.206 1.592.206.514 0 1.016-.069 1.498-.195l8.835 14.786 2.345-9.378 9.403 2.351-8.449-13.788c.19-.569.305-1.165.316-1.777 2.056-.037 3.978-1.132 5.029-2.954l.051-.088c1.053-1.822 1.039-4.034.043-5.832 1.482-.892 2.498-2.393 2.787-4.124h15.092c1.654 0 3-1.346 3-3v-20.001c0-1.654-1.346-3-3-3zm-11 4v2h-2v-2h-2v2h-2v-4h10v4h-2v-2zm-16 14.381c-2.151-3.239-5.828-5.381-10-5.381-6.617 0-12 5.383-12 12s5.383 12 12 12c6.346 0 11.543-4.954 11.959-11.197.326.121.674.197 1.041.197h.949c-.516 7.253-6.567 13-13.949 13-7.72 0-14-6.28-14-14s6.28-14 14-14c3.758 0 7.376 1.542 10 4.223zm0 6.619c0 5.514-4.486 10-10 10s-10-4.486-10-10 4.486-10 10-10 10 4.486 10 10zm-19.617 31.409-1.655-6.622-6.597 1.649 5.316-8.675c.424.493.925.928 1.51 1.266l.088.051c1.822 1.051 4.035 1.038 5.833.043.445.739 1.049 1.356 1.754 1.833zm27.486-4.972-6.597-1.649-1.655 6.622-6.244-10.448c.7-.478 1.304-1.097 1.751-1.84 1.798.995 4.009 1.008 5.832-.043l.088-.051c.585-.338 1.086-.773 1.51-1.266zm-.567-22.664-1.426.48.995 1.129c1.126 1.277 1.316 3.115.475 4.573l-.051.088c-.842 1.457-2.522 2.214-4.198 1.875l-1.475-.297.297 1.475c.336 1.669-.417 3.356-1.875 4.198l-.088.051c-1.457.841-3.297.65-4.573-.475l-1.129-.995-.48 1.426c-.544 1.615-2.04 2.699-3.824 2.699-1.685 0-3.181-1.084-3.724-2.698l-.48-1.426-1.129.995c-1.276 1.126-3.114 1.318-4.573.475l-.088-.051c-1.458-.842-2.211-2.529-1.875-4.198l.297-1.475-1.475.297c-1.672.338-3.356-.417-4.198-1.875l-.051-.088c-.842-1.458-.651-3.296.475-4.573l.995-1.129-1.426-.48c-1.614-.544-2.698-2.04-2.698-3.724v-.101c0-1.684 1.084-3.18 2.698-3.723l1.426-.48-.995-1.129c-1.125-1.277-1.316-3.115-.475-4.573l.051-.088c.842-1.458 2.533-2.213 4.198-1.875l1.475.297-.297-1.475c-.337-1.67.417-3.357 1.875-4.198l.088-.051c1.459-.843 3.296-.651 4.573.475l1.129.995.48-1.426c.544-1.614 2.04-2.698 3.824-2.698 1.685 0 3.181 1.084 3.724 2.698l.48 1.426 1.129-.995c1.279-1.124 3.117-1.316 4.573-.475l.044.026v4.859c-2.822-2.259-6.351-3.539-10-3.539-8.822 0-16 7.178-16 16s7.178 16 16 16c8.485 0 15.429-6.644 15.949-15h3.921c-.322 1.275-1.267 2.336-2.568 2.773zm20.698-5.773c0 .552-.448 1-1 1h-24c-.552 0-1-.448-1-1v-20c0-.552.448-1 1-1h5v6h14v-6h5c.552 0 1 .448 1 1z"/><path d="m53 21h2v2h-2z"/><path d="m57 21h2v2h-2z"/><path d="m49 21h2v2h-2z"/><path d="m49 17h10v2h-10z"/><path d="m21 30.586-2.293-2.293-1.414 1.414 3.707 3.707 9.707-9.707-1.414-1.414z"/></svg>