<?xml version="1.0" encoding="UTF-8" standalone="no"?>
<svg
   xmlns:dc="http://purl.org/dc/elements/1.1/"
   xmlns:cc="http://creativecommons.org/ns#"
   xmlns:rdf="http://www.w3.org/1999/02/22-rdf-syntax-ns#"
   xmlns:svg="http://www.w3.org/2000/svg"
   xmlns="http://www.w3.org/2000/svg"
   xmlns:sodipodi="http://sodipodi.sourceforge.net/DTD/sodipodi-0.dtd"
   xmlns:inkscape="http://www.inkscape.org/namespaces/inkscape"
   width="911.51099"
   height="1000"
   viewBox="0 0 729.20879 800"
   version="1.1"
   id="svg2"
   inkscape:version="0.91 r13725"
   sodipodi:docname="Harry Potter HP.svg">
  <metadata
     id="metadata12">
    <rdf:RDF>
      <cc:Work
         rdf:about="">
        <dc:format>image/svg+xml</dc:format>
        <dc:type
           rdf:resource="http://purl.org/dc/dcmitype/StillImage" />
        <dc:title></dc:title>
      </cc:Work>
    </rdf:RDF>
  </metadata>
  <defs
     id="defs10" />
  <sodipodi:namedview
     pagecolor="#ffffff"
     bordercolor="#666666"
     borderopacity="1"
     objecttolerance="10"
     gridtolerance="10"
     guidetolerance="10"
     inkscape:pageopacity="0"
     inkscape:pageshadow="2"
     inkscape:window-width="1366"
     inkscape:window-height="705"
     id="namedview8"
     showgrid="false"
     fit-margin-top="10"
     fit-margin-left="10"
     fit-margin-bottom="10"
     fit-margin-right="10"
     inkscape:zoom="0.38978616"
     inkscape:cx="612.67222"
     inkscape:cy="349.18643"
     inkscape:window-x="-8"
     inkscape:window-y="-8"
     inkscape:window-maximized="1"
     inkscape:current-layer="svg2" />
  <path
     d="M 441.84651,3.973142e-6 C 463.02033,0.30448397 484.19415,1.281344 505.35528,2.296264 c 20.71711,1.44627 41.48496,-0.0507 62.21475,-0.44403 -0.1903,6.92685 0.11418,13.86638 -0.48209,20.78054 -0.44403,7.12983 -1.38283,14.42459 0.54552,21.42755 5.26491,-1.47163 10.4537,-3.197 15.83279,-4.16118 8.60147,-2.95596 16.83503,-6.8761 25.34769,-10.07311 9.59102,-1.28133 17.93876,-7.87833 27.87231,-7.244 3.15895,5.96267 10.32684,8.38579 12.69922,14.90667 3.78058,4.5164 8.93132,8.10669 11.34176,13.72683 8.15744,7.244006 13.32085,17.253679 21.49098,24.485001 2.23283,5.023867 6.24177,8.905945 10.23803,12.54698 2.4485,3.831332 4.44029,8.119379 8.22087,10.910416 3.24775,2.359699 4.64327,6.191029 6.82536,9.375349 4.09775,3.56492 7.68803,7.73879 10.27609,12.54698 3.23506,3.70447 5.65819,8.0052 8.37311,12.09027 3.2985,4.31342 2.51193,10.0731 3.05745,15.1604 -1.11641,9.27386 -0.12686,18.63651 -1.21791,27.91037 -3.37461,37.24765 -7.14251,74.45725 -10.74549,111.67953 -0.29179,9.14699 0.15224,18.29398 -0.20298,27.42828 -3.69178,4.14849 -8.71565,7.02834 -11.55743,11.91265 -0.67239,1.43358 -2.14403,2.01716 -3.45074,2.70223 -5.79774,2.76567 -9.73057,8.32237 -15.83279,10.58057 -10.32684,3.88208 -19.46114,10.91042 -30.53648,12.67384 -12.17907,4.13581 -24.51038,8.42386 -37.39989,9.61639 -2.74029,-0.10149 -6.73655,0.85 -8.09401,-2.29626 -2.48656,-5.03655 -6.8761,-8.944 -8.20819,-14.52608 -3.6664,-5.63282 -8.11938,-10.80892 -10.85967,-17.03801 -3.45073,-7.61192 -10.11116,-13.24474 -12.94026,-21.17382 -2.76566,-3.98357 -5.40446,-8.05594 -7.95445,-12.17907 2.76566,-0.21567 5.89923,0.68508 8.29699,-1.19253 2.02984,-0.0888 4.08506,-0.11418 6.14028,-0.13955 2.90521,1.94104 5.50595,4.4276 7.05371,7.61192 1.82686,3.90745 6.00073,5.73431 8.56341,9.04549 2.34701,2.4485 3.34924,6.01342 6.35595,7.84028 3.84402,2.80372 6.49551,6.78729 9.50221,10.39027 5.62014,1.95372 8.46192,-4.83357 10.644,-8.72834 4.16118,-4.46565 8.6649,-9.15967 10.31415,-15.21115 0.79925,-61.69459 -0.31716,-123.51606 -6.85072,-184.91887 -1.11642,-13.99325 -4.38954,-27.770821 -4.6179,-41.814811 -0.74851,-4.897001 -2.06791,-9.705197 -2.43582,-14.652944 -2.39775,-2.11865 -5.34103,-4.655957 -8.79176,-3.69178 -6.77461,1.395518 -13.38429,3.742526 -20.37457,3.476109 -8.88057,2.029845 -17.88801,3.844019 -26.34993,7.282069 -1.37014,7.586546 -0.67238,15.32533 -0.82462,23.000681 -0.21567,26.641716 0.53283,53.258066 0.30448,79.912466 -0.13956,38.90959 0.57089,77.80649 0.30447,116.72877 2.65149,56.30282 6.90148,112.51684 10.82161,168.74355 0.68508,6.79998 0.71045,13.62533 0.58358,20.45069 0.20299,2.33432 -2.05521,3.75521 -3.17163,5.50595 -3.5776,-5.34103 -6.91416,-10.91042 -8.944,-17.0507 -2.72761,-7.63729 -8.20819,-13.87906 -10.78355,-21.57979 -2.80373,-7.63729 -7.59924,-14.27234 -10.99923,-21.61785 -0.90074,72.23711 0.29179,144.51228 -0.69776,216.76207 -5.21416,-2.22014 -7.47236,-7.49774 -10.33952,-11.95071 -1.92835,-9.52758 -9.62908,-16.53055 -12.47086,-25.72828 -1.81417,-5.59476 -5.98804,-9.97162 -8.30968,-15.33802 -0.6597,14.76712 -2.60074,29.4835 -2.77835,44.27599 0.45672,13.57459 -1.37014,27.06038 -2.23283,40.58422 -2.54999,32.2111 -5.13804,64.4222 -8.41117,96.56987 -1.62387,9.90818 0.6597,20.33651 -3.42536,29.81335 -3.28581,-14.12011 -5.11267,-28.54469 -7.95445,-42.7663 -1.26866,-5.32834 -0.40597,-10.84698 -1.5097,-16.17532 -3.46343,-18.69995 -6.6858,-37.45064 -10.19997,-56.15059 -0.81194,-4.49103 -0.22836,-9.10893 -1.14179,-13.58727 -3.53954,-19.29622 -7.11714,-38.57975 -10.59325,-57.87596 0.19029,-9.73057 -2.43582,-19.14398 -4.02163,-28.65887 -2.41045,-13.06713 -4.84626,-26.12157 -7.26939,-39.17601 -0.50746,-4.6179 -0.17761,-9.29923 -1.2179,-13.85369 -3.1082,-16.5813 -6.22909,-33.17528 -9.29923,-49.76927 -1.7888,-7.11714 -0.86269,-14.57682 -2.66417,-21.70665 2.11865,3.78059 5.01118,7.1552 8.65221,9.56564 3.81865,2.15671 4.68133,6.99028 8.29699,9.41341 3.60298,2.3597 6.57163,5.45521 8.79177,9.14699 1.80149,0.11418 2.52462,-0.74851 2.18208,-2.60074 -1.04029,-12.7119 -4.05969,-25.27157 -3.7679,-38.08497 -3.13357,-23.53351 -6.92684,-46.96553 -10.82161,-70.37218 -0.86268,-4.41492 -0.0761,-8.96938 -1.02761,-13.37161 -3.67909,-20.88203 -7.35819,-41.84018 -11.51937,-62.58266 -12.78802,-2.61342 -26.32455,1.2306 -38.59243,5.42984 -3.99625,1.00224 -7.47236,3.4888 -11.57011,4.07238 -2.18209,0.34253 -4.30074,1.20522 -6.05148,2.54999 -1.62387,3.55223 -0.58358,7.63729 -0.84999,11.40519 -0.22836,41.42152 0.5582,82.83036 0.32985,124.2392 0.58358,42.71555 0.19029,85.45647 0.30447,128.17202 -0.64701,18.21786 1.52239,37.0193 9.69251,53.52448 2.53731,6.50819 6.44476,13.02907 12.59773,16.68279 3.48879,3.12088 7.95445,4.75745 11.69698,7.49774 0.43134,1.91566 0.43134,3.93282 0.0888,5.87386 -1.90298,1.90298 -4.75744,2.43581 -7.32012,1.85223 -11.83654,-2.04253 -23.68576,-4.69401 -35.76334,-4.35148 -38.22451,-4.49103 -77.07067,-6.52087 -115.37131,-1.5985 -2.46119,-0.25373 -2.1694,-2.95596 -2.70223,-4.68133 -0.43134,-2.43581 -2.33432,-4.19924 -3.62835,-6.17834 5.03655,-4.02163 10.44102,-7.5358 15.93428,-10.89773 3.70447,-3.99626 7.5358,-7.86565 11.24027,-11.86191 1.56044,-4.50372 4.02163,-8.61415 5.97536,-12.94026 3.7679,-11.02459 6.72386,-22.56934 6.27983,-34.30438 5.01118,-50.99985 4.55447,-102.35493 2.93059,-153.51971 -0.44403,-17.88801 -1.86492,-35.72527 -3.03208,-53.54985 -4.90969,3.60298 -9.62908,7.52311 -14.57683,11.03728 -5.48058,1.00224 -9.43878,5.12536 -14.46264,7.16789 -4.85894,2.09328 -9.24848,5.32835 -14.71638,5.56939 -9.71788,4.21193 -19.76561,7.64998 -29.92752,10.56788 -4.92238,0.15224 -9.7052,1.23059 -14.44996,2.48656 0.64701,59.69013 0.87537,119.39294 1.80148,179.08307 -0.48208,6.00073 3.23507,10.89773 5.79775,15.95966 6.8761,3.52686 11.494,10.98654 19.38502,12.45817 0.97686,0.72314 1.95372,1.47164 2.93059,2.22015 -0.0888,2.0679 -0.16493,4.14849 -0.27911,6.22908 -17.84995,-6.24177 -36.87974,-7.44699 -55.60506,-8.79176 -21.59248,0.38059 -43.14689,-1.3194 -64.73937,-1.61119 -17.202937,-0.48209 -34.41856,-0.74851 -51.646869,-0.67239 -0.126865,-2.95596 -0.317163,-5.89924 -0.431342,-8.84251 6.2164,-0.97686 11.544743,-4.50372 16.606669,-8.03057 7.155204,-4.41492 14.120109,-9.62908 18.649201,-16.84772 3.070141,-5.8358 6.165651,-11.91265 6.685801,-18.58577 2.75298,-22.72157 2.20746,-45.64614 2.84178,-68.4692 -0.0634,-25.03053 -0.21567,-50.04837 -0.90074,-75.06621 -7.066398,-3.50148 -14.145482,-7.01565 -20.958149,-10.94848 -3.805959,-0.21567 -7.16789,-2.09327 -10.326836,-4.05969 -4.072377,-2.56267 -8.601469,-4.28804 -12.699218,-6.81266 -2.930589,-1.1291 -6.178341,-1.54776 -8.70296,-3.56492 -4.224615,-3.05745 -9.07087,-5.12536 -13.257425,-8.22087 -6.25446,-3.28581 -9.958927,-9.50221 -14.678317,-14.46265 -2.499247,-3.03208 -4.68133,-6.3052 -7.218636,-9.3246 -2.461187,-7.11714 -8.41117,-12.2425 -11.0753418,-19.24546 C 5.30297,331.94309 1.7888009,326.42445 0,320.19536 c 9.0835563,-4.73207 18.750693,-9.23579 29.115589,-9.70519 11.938026,-2.75298 23.952171,-5.20148 36.080494,-6.95222 3.717154,-0.13955 2.588053,4.17387 1.179848,6.14028 -4.491032,2.58805 -9.286541,4.68133 -13.523842,7.71341 -3.235066,2.33432 -6.711175,4.59252 -10.732806,5.21416 -6.229087,4.30074 -12.927575,7.87834 -18.788752,12.73728 2.613425,2.41044 5.163418,4.897 7.45968,7.62461 2.537306,3.1082 6.926846,3.47611 9.667137,6.31789 6.723861,6.53356 15.972342,9.27385 23.457396,14.72906 3.285811,2.37238 6.926846,4.31342 10.821611,5.49327 10.085792,3.89477 19.004423,13.40966 30.574535,11.39251 0.32985,-22.94994 -0.54552,-45.88719 -1.20522,-68.82444 -1.58581,-49.88344 -3.5776,-99.75419 -5.594756,-149.61225 -0.837311,-13.58728 -0.29179,-27.19993 -0.482088,-40.7872 0.05075,-3.80596 -1.953726,-7.16789 -3.844019,-10.32684 -5.328343,-10.06042 -15.566374,-16.352941 -25.766345,-20.602929 0.824625,-3.095513 3.323871,-5.696252 6.660429,-5.734312 21.148447,1.497011 42.385699,0.98955 63.572209,0.608954 26.17231,-0.545521 52.31925,-1.674622 78.47888,-2.56268 -0.13955,2.727605 -0.36791,5.442522 -0.68507,8.15744 -1.14179,0.545521 -2.28358,1.091041 -3.42537,1.636562 -3.36193,4.338794 -7.54848,8.144755 -10.0731,13.054445 -3.66641,6.91416 -1.47164,14.86861 -2.29626,22.29024 -0.54552,31.69095 0.45671,63.36922 0.16492,95.06017 -0.21567,38.93496 1.80149,77.83187 3.18432,116.72877 0.48209,9.00744 0.69776,18.04025 1.66194,27.02231 6.08953,-1.42089 11.79847,-4.11043 17.39323,-6.83804 3.32387,-2.82909 8.11938,-2.32163 11.45594,-5.16341 3.86939,-3.23507 8.72833,-4.98581 12.57235,-8.25894 8.42386,-2.04253 13.38429,-10.28877 21.70665,-12.66115 4.65596,-4.03432 9.93356,-7.28207 14.64026,-11.25296 3.66641,-1.75074 6.81267,-4.35148 9.94624,-6.88878 0.11418,-30.91708 0.0127,-61.83416 0.0634,-92.75123 -1.2179,-47.43494 -3.78058,-94.84451 -7.77684,-142.127212 -0.45671,-4.288048 -2.60074,-8.106693 -3.98357,-12.128324 -3.60297,-2.004472 -6.93953,-4.452972 -10.66937,-6.241773 -1.24328,-2.676858 -5.51864,-6.660429 -1.72537,-9.007437 14.19623,3.184319 28.73499,1.712682 43.1342,2.473873 19.4992,1.040296 38.98571,-0.507461 58.48491,-0.380596 11.39251,-0.54552 22.72158,-2.321635 34.11409,-2.740287 0.58358,0.405966 1.76342,1.217904 2.35969,1.623873 -3.24775,4.135809 -7.67535,7.370874 -9.92087,12.280562 -3.92014,9.146989 -9.15967,17.672338 -12.31862,27.161863 -3.47611,24.307398 -3.00671,48.957328 -3.20969,73.455018 -0.17761,24.10441 0.22836,48.19613 0.38059,72.30054 0.55821,15.59175 0.12687,31.20887 1.12911,46.78793 13.44772,-3.15895 26.89544,-6.82536 40.73645,-7.7261 10.28877,-2.41044 21.88426,-1.83955 30.54916,4.82088 3.00671,0.49477 5.9373,1.49701 8.3858,3.36193 4.6179,3.53954 9.75594,6.29252 14.84324,9.07087 -0.88805,-9.52758 -2.28357,-19.00442 -1.91566,-28.59544 -2.76567,-26.78126 -6.85073,-53.39761 -10.85967,-80.01395 -0.82463,-4.79551 -0.20299,-9.69251 -0.77388,-14.5007 -3.61566,-24.48501 -7.14252,-48.97001 -10.68206,-73.455024 -0.83731,-4.871628 -0.0888,-9.857434 -0.86269,-14.729062 -3.20969,-22.366355 -6.48281,-44.70734 -9.69251,-67.07369 C 442.10021,11.938034 441.6308,5.962674 441.84648,3.973142e-6 Z"
     id="path6"
     inkscape:connector-curvature="0"
     style="fill:#030303" />
</svg>
